{
  "accessors": [
    {
      "bufferView": 2,
      "componentType": 5126,
      "count": 15492,
      "max": [
        43.95882034301758,
        40.49372100830078,
        50.381614685058594
      ],
      "min": [
        -51.625335693359375,
        -0.7521915435791016,
        -34.839534759521484
      ],
      "type": "VEC3"
    },
    {
      "bufferView": 2,
      "byteOffset": 185904,
      "componentType": 5126,
      "count": 15492,
      "type": "VEC3"
    },
    {
      "bufferView": 3,
      "componentType": 5126,
      "count": 15492,
      "type": "VEC4"
    },
    {
      "bufferView": 1,
      "componentType": 5126,
      "count": 15492,
      "type": "VEC2"
    },
    {
      "bufferView": 0,
      "componentType": 5125,
      "count": 87300,
      "type": "SCALAR"
    }
  ],
  "asset": {
    "generator": "fab-model-conversion",
    "version": "2.0"
  },
  "bufferViews": [
    {
      "buffer": 0,
      "byteLength": 349200,
      "target": 34963
    },
    {
      "buffer": 0,
      "byteLength": 123936,
      "byteOffset": 349200,
      "byteStride": 8,
      "target": 34962
    },
    {
      "buffer": 0,
      "byteLength": 371808,
      "byteOffset": 473136,
      "byteStride": 12,
      "target": 34962
    },
    {
      "buffer": 0,
      "byteLength": 247872,
      "byteOffset": 844944,
      "byteStride": 16,
      "target": 34962
    }
  ],
  "buffers": [
    {
      "byteLength": 1092816,
      "uri": "Military_Trenches_Pile_Sandbag_Canvas_01_yd0tae2_High.bin"
    }
  ],
  "images": [
    {
      "uri": "textures/Military_Trenches_Pile_Sandbag_Canvas_01_yd0tae2_High_4K_albedo.jpeg"
    },
    {
      "uri": "textures/Military_Trenches_Pile_Sandbag_Canvas_01_yd0tae2_High_4K_orm.png"
    },
    {
      "uri": "textures/Military_Trenches_Pile_Sandbag_Canvas_01_yd0tae2_High_4K_normal.jpeg"
    }
  ],
  "materials": [
    {
      "doubleSided": true,
      "name": "Military_Trenches_Pile_Sandbag_Canvas_01_yd0tae2_High",
      "normalTexture": {
        "index": 2
      },
      "occlusionTexture": {
        "index": 1
      },
      "pbrMetallicRoughness": {
        "baseColorTexture": {
          "index": 0
        },
        "metallicFactor": 0.0,
        "metallicRoughnessTexture": {
          "index": 1
        }
      }
    }
  ],
  "meshes": [
    {
      "name": "yd0tae2_LOD0_TIER1_000_MatID_1_0",
      "primitives": [
        {
          "attributes": {
            "NORMAL": 1,
            "POSITION": 0,
            "TANGENT": 2,
            "TEXCOORD_0": 3
          },
          "indices": 4,
          "material": 0,
          "mode": 4
        }
      ]
    }
  ],
  "nodes": [
    {
      "children": [
        1
      ],
      "matrix": [
        1.0,
        0.0,
        0.0,
        0.0,
        0.0,
        2.220446049250313e-16,
        -1.0,
        0.0,
        0.0,
        1.0,
        2.220446049250313e-16,
        0.0,
        0.0,
        0.0,
        0.0,
        1.0
      ],
      "name": "FAB converted model"
    },
    {
      "children": [
        2
      ],
      "matrix": [
        0.009999999776482582,
        0.0,
        0.0,
        0.0,
        0.0,
        0.0,
        0.009999999776482582,
        0.0,
        0.0,
        -0.009999999776482582,
        0.0,
        0.0,
        0.0,
        0.0,
        0.0,
        1.0
      ],
      "name": "Military_Trenches_Pile_Sandbag_Canvas_01_yd0tae2_High.fbx"
    },
    {
      "children": [
        3
      ],
      "name": "RootNode"
    },
    {
      "children": [
        4
      ],
      "name": "world_root"
    },
    {
      "children": [
        5
      ],
      "name": "yd0tae2_LOD0_TIER1_000"
    },
    {
      "mesh": 0,
      "name": "yd0tae2_LOD0_TIER1_000_MatID_1_0"
    }
  ],
  "samplers": [
    {
      "magFilter": 9729,
      "minFilter": 9987,
      "wrapS": 10497,
      "wrapT": 10497
    }
  ],
  "scene": 0,
  "scenes": [
    {
      "name": "FAB converted",
      "nodes": [
        0
      ]
    }
  ],
  "textures": [
    {
      "sampler": 0,
      "source": 0
    },
    {
      "sampler": 0,
      "source": 1
    },
    {
      "sampler": 0,
      "source": 2
    }
  ]
}
