{
  "accessors": [
    {
      "bufferView": 2,
      "componentType": 5126,
      "count": 483,
      "max": [
        20.85400390625,
        68.56990051269531,
        2.2212796211242676
      ],
      "min": [
        -4.173778533935547,
        -13.02186107635498,
        -2.248401641845703
      ],
      "type": "VEC3"
    },
    {
      "bufferView": 2,
      "byteOffset": 5796,
      "componentType": 5126,
      "count": 483,
      "type": "VEC3"
    },
    {
      "bufferView": 1,
      "componentType": 5126,
      "count": 483,
      "type": "VEC2"
    },
    {
      "bufferView": 0,
      "componentType": 5125,
      "count": 927,
      "type": "SCALAR"
    }
  ],
  "asset": {
    "generator": "fab-model-conversion",
    "version": "2.0"
  },
  "bufferViews": [
    {
      "buffer": 0,
      "byteLength": 3708,
      "target": 34963
    },
    {
      "buffer": 0,
      "byteLength": 3864,
      "byteOffset": 3708,
      "byteStride": 8,
      "target": 34962
    },
    {
      "buffer": 0,
      "byteLength": 11592,
      "byteOffset": 7572,
      "byteStride": 12,
      "target": 34962
    }
  ],
  "buffers": [
    {
      "byteLength": 19164,
      "uri": "scene.bin"
    }
  ],
  "materials": [
    {
      "doubleSided": true,
      "name": "PP_Standard_Material.047",
      "pbrMetallicRoughness": {
        "metallicFactor": 0.0,
        "roughnessFactor": 0.788525999
      }
    }
  ],
  "meshes": [
    {
      "name": "PP_Axe_Used_07_Iron_PP_Standard_Material.047_0",
      "primitives": [
        {
          "attributes": {
            "NORMAL": 1,
            "POSITION": 0,
            "TEXCOORD_0": 2
          },
          "indices": 3,
          "material": 0,
          "mode": 4
        }
      ]
    }
  ],
  "nodes": [
    {
      "children": [
        1
      ],
      "matrix": [
        1.0,
        0.0,
        0.0,
        0.0,
        0.0,
        2.220446049250313e-16,
        -1.0,
        0.0,
        0.0,
        1.0,
        2.220446049250313e-16,
        0.0,
        0.0,
        0.0,
        0.0,
        1.0
      ],
      "name": "FAB converted model"
    },
    {
      "children": [
        2
      ],
      "matrix": [
        0.009999999776482582,
        0.0,
        0.0,
        0.0,
        0.0,
        0.0,
        0.009999999776482582,
        0.0,
        0.0,
        -0.009999999776482582,
        0.0,
        0.0,
        0.0,
        0.0,
        0.0,
        1.0
      ],
      "name": "PP_Axe_Used_07_Iron.fbx"
    },
    {
      "children": [
        3
      ],
      "name": "RootNode"
    },
    {
      "children": [
        4
      ],
      "name": "PP_Axe_Used_07_Iron"
    },
    {
      "mesh": 0,
      "name": "PP_Axe_Used_07_Iron_PP_Standard_Material.047_0"
    }
  ],
  "scene": 0,
  "scenes": [
    {
      "name": "FAB converted",
      "nodes": [
        0
      ]
    }
  ]
}
